<?xml version="1.0" encoding="UTF-8"?>
<svg version="1.1" xmlns="http://www.w3.org/2000/svg" width="1024" height="1024">
<path d="M0 0 C337.92 0 675.84 0 1024 0 C1024 337.92 1024 675.84 1024 1024 C686.08 1024 348.16 1024 0 1024 C0 686.08 0 348.16 0 0 Z " fill="#181F2A" transform="translate(0,0)"/>
<path d="M0 0 C3.12291165 1.68012647 5.39164837 3.78329674 7 7 C7.09693787 9.1917781 7.12661938 11.38660674 7.12749195 13.58052731 C7.12913578 14.2676875 7.13077962 14.95484769 7.13247326 15.66283092 C7.13681935 17.98853305 7.13400349 20.31417345 7.13130188 22.63987732 C7.1330028 24.31510612 7.13515192 25.99033451 7.13771313 27.66556221 C7.14232248 31.32012877 7.1437286 34.97467836 7.14274788 38.62924767 C7.14115925 44.57529749 7.1463486 50.52133041 7.15237427 56.46737671 C7.16049935 65.10353528 7.16543546 73.73969089 7.16866493 82.37585258 C7.17415855 96.03745137 7.19105502 109.69902513 7.21000671 123.36061096 C7.21636422 128.03439613 7.22267263 132.70818136 7.22898388 137.38196659 C7.23056764 138.5502057 7.2321514 139.71844482 7.23378316 140.92208512 C7.25173307 154.23166497 7.26795072 167.5412466 7.28295898 180.85083008 C7.28502279 182.67639989 7.28502279 182.67639989 7.28712829 184.5388499 C7.30902049 204.22615866 7.3198046 223.91346099 7.32732973 243.60077976 C7.33541432 263.82027547 7.35875203 284.03971626 7.3952834 304.25918061 C7.41726119 316.72426178 7.42698748 329.18922987 7.42078307 341.65432943 C7.4175968 350.21157653 7.42901536 358.76872748 7.45167748 367.32594483 C7.46428609 372.25585499 7.47058743 377.18555081 7.45926094 382.11546898 C7.4489956 386.64205506 7.45753887 391.16822755 7.4801239 395.69476534 C7.48506518 397.31952181 7.48349364 398.94431634 7.47419123 400.5690537 C7.38278373 417.91900274 10.55843945 434.25030937 18 450 C18.44883545 450.95132813 18.44883545 450.95132813 18.90673828 451.921875 C23.24436506 460.92577075 28.33164984 468.50242495 35 476 C36.01126953 477.24330078 36.01126953 477.24330078 37.04296875 478.51171875 C43.36111487 486.06267387 50.88668 491.54083535 59 497 C59.97839844 497.66128906 60.95679688 498.32257813 61.96484375 499.00390625 C86.74809702 514.54123334 118.47512044 518.21605276 146.80200195 512.04760742 C179.12302748 503.95312965 209.19554767 483.78626838 226.4609375 454.9921875 C230.77295561 447.556454 234.7527034 439.96442219 238 432 C238.41894531 431.00613281 238.83789062 430.01226563 239.26953125 428.98828125 C248.29971746 405.93538895 249.94371892 379.99603733 244 356 C243.79503906 355.04609375 243.59007812 354.0921875 243.37890625 353.109375 C242.05239018 347.47374152 239.90149037 342.54877677 237.375 337.375 C234.68003429 331.81423634 232.6970536 327.26089237 233 321 C234.76503314 318.07856583 235.95847635 316.52076183 239 315 C242.52937577 314.60784714 244.38174358 314.59591084 247.390625 316.5625 C250.55606863 319.51944136 252.68544639 322.6358218 254.9375 326.3125 C255.3720752 327.01890625 255.80665039 327.7253125 256.25439453 328.453125 C271.74110928 354.32003077 276.06983233 389.5068584 268.84985352 418.76098633 C267.40115009 423.90413548 265.77575036 428.96106589 264 434 C263.55962402 435.29043213 263.55962402 435.29043213 263.11035156 436.60693359 C255.15625322 459.62644043 242.2650129 479.82926704 225 497 C224.14148438 497.85851562 223.28296875 498.71703125 222.3984375 499.6015625 C203.95649528 517.15205132 180.67256707 529.7701082 156 536 C154.83082031 536.30292969 153.66164063 536.60585938 152.45703125 536.91796875 C130.55392341 542.28662464 104.69513616 542.48084946 83 536 C82.34870117 535.81808105 81.69740234 535.63616211 81.02636719 535.44873047 C47.46810169 525.99938495 17.22025768 501.15249395 0 471 C-15.47337697 441.66032652 -17.76262646 413.89567379 -17.6389643 381.33994293 C-17.62542512 376.31226554 -17.64108484 371.28465895 -17.65278625 366.25698853 C-17.6710374 356.4481261 -17.66273857 346.63946459 -17.64469803 336.8306087 C-17.63061201 328.86164974 -17.62679204 320.89274493 -17.6301403 312.92377472 C-17.63085647 311.21584777 -17.63085647 311.21584777 -17.6315871 309.47341724 C-17.6326135 307.15984023 -17.63366886 304.84626324 -17.63475286 302.53268626 C-17.64329249 282.14284457 -17.6267255 261.75309945 -17.59692383 241.36328125 C-17.5680169 221.58524535 -17.56104234 201.80734814 -17.57641602 182.02929688 C-17.593166 160.45126382 -17.59723059 138.87329637 -17.57970566 117.29526162 C-17.57786133 114.99681108 -17.57602661 112.69836053 -17.57420158 110.39990997 C-17.57328949 109.2691748 -17.5723774 108.13843962 -17.57143768 106.97343974 C-17.56583064 99.00402821 -17.5691403 91.03464875 -17.57574654 83.06523895 C-17.58346573 73.36934556 -17.57677584 63.67358877 -17.5515715 53.97772297 C-17.53905246 49.03116064 -17.53295962 44.08481133 -17.54411316 39.13824081 C-17.55412262 34.61391665 -17.54576685 30.09001825 -17.52253198 25.5657461 C-17.51735518 23.92644934 -17.51896588 22.28711471 -17.52792663 20.64783427 C-17.53907197 18.42462991 -17.52574414 16.202878 -17.50615788 13.97976303 C-17.50496639 12.74365524 -17.50377491 11.50754745 -17.50254732 10.23398185 C-16.90178558 6.36797263 -15.72004638 4.76155577 -13 2 C-8.7581081 -0.82792793 -4.98126257 -0.78122286 0 0 Z " fill="#FAFAFB" transform="translate(403,280)"/>
<path d="M0 0 C4.37398861 3.52554169 5.74114743 6.26946867 6.73828125 11.73828125 C6.86438782 12.39706772 6.99049438 13.05585419 7.12042236 13.73460388 C7.53560585 15.92431129 7.9235406 18.11799594 8.3125 20.3125 C8.60912997 21.89850934 8.90792914 23.4841143 9.20874023 25.06933594 C9.839079 28.39914329 10.4605999 31.73042074 11.07617188 35.06298828 C12.34073864 41.86955697 13.72003744 48.65229664 15.09506226 55.43722534 C15.91585769 59.49833273 16.72538567 63.56168228 17.53515625 67.625 C17.7151265 68.52802353 17.89509674 69.43104706 18.08052063 70.36143494 C18.48553818 72.39441671 18.89043173 74.42742319 19.29522705 76.46044922 C19.80526823 79.02200705 20.31548757 81.58352904 20.8258667 84.14501953 C22.56850017 92.89236652 24.30748896 101.64042673 26.04082203 110.38962173 C26.84987457 114.47314006 27.66019786 118.55639634 28.47366333 122.63903809 C29.24732877 126.52235782 30.01730151 130.40639219 30.78454781 134.29098511 C31.07196594 135.7428894 31.36069801 137.19453426 31.6508007 138.64590454 C32.05133477 140.65092868 32.44669151 142.65698498 32.84179688 144.66308594 C33.06637573 145.79486267 33.29095459 146.9266394 33.52233887 148.0927124 C34 151 34 151 34 155 C34.66 155 35.32 155 36 155 C36.103125 154.175 36.20625 153.35 36.3125 152.5 C36.94434311 149.28334417 37.92873579 146.46162995 39.09643555 143.41064453 C40.92156261 138.5413377 42.56519131 133.60669981 44.25 128.6875 C48.7146673 115.6959662 53.22429427 102.72038994 57.75 89.75 C58.22354919 88.39217911 58.22354919 88.39217911 58.70666504 87.00692749 C59.17139221 85.67451523 59.17139221 85.67451523 59.64550781 84.31518555 C59.95099548 83.43908127 60.25648315 82.56297699 60.57122803 81.6603241 C61.1753967 79.93117848 61.78136708 78.20266124 62.38922119 76.47480774 C63.8317126 72.37224367 65.25018119 68.26509922 66.61132812 64.13476562 C66.8698053 63.36513489 67.12828247 62.59550415 67.39459229 61.80255127 C67.87267535 60.37706347 68.34086002 58.94819453 68.79632568 57.51531982 C70.50937766 52.4626351 73.03626091 47.48186955 78 45 C81.45994738 44.6155614 83.49289054 44.74644527 86.625 46.3125 C92.20613453 52.62799433 93.67906757 62.09804984 95.3125 70.1875 C95.7337887 72.1941336 96.15570119 74.2006363 96.578125 76.20703125 C96.91553711 77.82665771 96.91553711 77.82665771 97.25976562 79.47900391 C98.50866319 85.41950546 99.80623596 91.34936542 101.10406494 97.27932739 C101.55987213 99.36298707 102.01411071 101.44698466 102.46826172 103.53100586 C104.32950905 112.05303202 106.27200154 120.54899364 108.37109375 129.015625 C109 132 109 132 109 136 C109.66 136 110.32 136 111 136 C111.103125 135.175 111.20625 134.35 111.3125 133.5 C111.94868531 130.26123842 112.93223072 127.39625402 114.1105957 124.32324219 C115.06308768 121.8352066 115.98362331 119.33662945 116.90234375 116.8359375 C117.58041448 115.01550776 118.25880443 113.19519688 118.9375 111.375 C119.27201172 110.45976562 119.60652344 109.54453125 119.95117188 108.6015625 C124.60216346 96.19891827 124.60216346 96.19891827 129 94 C131.96254591 93.68518292 134.12433336 93.47656035 137 94 C139.16346472 95.78789774 140.73761417 97.3374999 142.53100586 99.42578125 C146.8772539 103.88316837 149.94557526 105.79865248 156.37329102 106.29296875 C159.09945938 106.31274112 161.78333422 106.27676386 164.50390625 106.1875 C165.95929368 106.18178844 167.41471067 106.18140099 168.87010193 106.18603516 C172.66306041 106.18603516 176.45217422 106.12341475 180.24420166 106.04400635 C186.34161099 105.92826425 192.4402969 105.9142275 198.53861809 105.89151001 C200.66146925 105.87522959 202.78275094 105.83476212 204.90516663 105.78979492 C206.18757736 105.77408447 207.4699881 105.75837402 208.79125977 105.7421875 C210.48569969 105.70907471 210.48569969 105.70907471 212.21437073 105.67529297 C215 106 215 106 216.86070251 107.33251953 C218.66722028 109.97654634 218.4443941 111.88924128 218 115 C215.80777586 117.92941903 214.59780307 118.89349925 210.96003723 119.5415802 C209.77028793 119.5598436 208.58053864 119.57810699 207.35473633 119.59692383 C206.36605057 119.61948494 206.36605057 119.61948494 205.35739136 119.64250183 C203.18199566 119.68553014 201.00781833 119.69827258 198.83203125 119.70703125 C197.31230729 119.72243539 195.79258779 119.73828596 194.27287292 119.75456238 C191.08602856 119.78301749 187.89961122 119.7944318 184.71264648 119.79614258 C180.64747015 119.80131069 176.58567505 119.86616568 172.52138233 119.94643116 C169.38035269 119.99868305 166.24012371 120.00970382 163.09869957 120.00964928 C161.60160378 120.01617615 160.10449221 120.03729293 158.60782814 120.07383156 C146.88498318 120.33542564 146.88498318 120.33542564 142.12435913 116.96273804 C139.69799805 114.4987793 139.69799805 114.4987793 137.7051239 112.03056335 C136.08031644 109.73613247 136.08031644 109.73613247 133 109 C132.86948242 109.71986084 132.73896484 110.43972168 132.60449219 111.18139648 C132.01778082 113.91709225 131.24295463 116.45528211 130.328125 119.09765625 C129.99586914 120.05873291 129.66361328 121.01980957 129.32128906 122.01000977 C128.96776367 123.01733154 128.61423828 124.02465332 128.25 125.0625 C127.70811035 126.60925415 127.70811035 126.60925415 127.15527344 128.18725586 C118.51222391 152.65851739 118.51222391 152.65851739 112 157 C108.23914899 157.49054578 106.50952767 157.31266471 103.25 155.3125 C99.11494256 151.06257985 98.35015483 145.63690091 97.125 139.98828125 C96.95500488 139.22001511 96.78500977 138.45174896 96.60986328 137.66020203 C96.06926466 135.21182455 95.53466833 132.76217851 95 130.3125 C94.64099292 128.68546565 94.28162134 127.05851168 93.921875 125.43164062 C91.12550872 112.74807018 91.12550872 112.74807018 90.0078125 106.9453125 C88.38207009 98.64241378 86.28462411 90.42864889 84.30810547 82.20336914 C83.76238846 79.92923219 83.22078585 77.65414585 82.6796875 75.37890625 C82.42661331 74.33362511 82.42661331 74.33362511 82.16842651 73.26722717 C81.49593934 70.43132986 81 67.92703287 81 65 C80.34 65 79.68 65 79 65 C78.90074219 65.97324219 78.80148437 66.94648438 78.69921875 67.94921875 C78.04653975 72.4906344 76.46730489 76.55319527 74.8125 80.8125 C72.47571146 86.98417118 70.2316438 93.1627594 68.1875 99.4375 C63.10620627 114.95551992 57.46761863 130.29439675 51.85009766 145.625 C51.02651792 147.92591431 50.25361978 150.23785212 49.5 152.5625 C44.28041655 168.19318807 44.28041655 168.19318807 39 172 C35.23011598 173.07710972 33.02353948 173.35704866 29.3125 172.0625 C21.84391517 165.40132974 21.24460251 154.32221829 19.5625 145 C19.10734019 142.55579486 18.64789127 140.1124186 18.18841553 137.66902161 C17.88381703 136.04704374 17.58062831 134.42480047 17.27886963 132.80229187 C16.06574544 126.28655035 14.75136274 119.79577653 13.375 113.3125 C10.08425063 97.69531715 6.97276358 82.04442079 3.94140625 66.375 C3.57660639 64.49275181 3.21177878 62.610509 2.84692383 60.72827148 C2.12064643 56.98104448 1.39849186 53.23305196 0.6784668 49.48461914 C0.34307193 47.75143857 0.00754724 46.01828312 -0.328125 44.28515625 C-0.48208237 43.47800171 -0.63603973 42.67084717 -0.79466248 41.8392334 C-1.53418704 37.80477017 -1.53418704 37.80477017 -3 34 C-3.10546143 34.84481934 -3.21092285 35.68963867 -3.31958008 36.56005859 C-6.85829731 64.78147256 -6.85829731 64.78147256 -8.5 74 C-10.0613627 82.86284327 -11.17566273 91.77503501 -12.30419922 100.7019043 C-12.4774544 102.07211357 -12.65079675 103.44231183 -12.82421875 104.8125 C-12.91392944 105.52134842 -13.00364014 106.23019684 -13.09606934 106.96052551 C-13.87740097 113.10227353 -14.69472331 119.2389542 -15.51953125 125.375 C-15.65178604 126.35989914 -15.78404083 127.34479828 -15.92030334 128.35954285 C-16.44979562 132.2997671 -16.97972449 136.23992721 -17.51333618 140.17959595 C-18.90851482 150.48368457 -20.26203817 160.78353217 -21.33096313 171.12739563 C-21.77220776 175.31629822 -22.39216061 179.42666687 -23.1875 183.5625 C-24.06934469 188.69259647 -23.94813099 192.90284778 -23 198 C-22.88962402 198.61488281 -22.77924805 199.22976563 -22.66552734 199.86328125 C-21.65723969 205.47691945 -20.63150641 211.08995019 -19.421875 216.6640625 C-18.96747069 219.18011601 -18.79689556 221.56919223 -18.75 224.125 C-18.72421875 224.97320313 -18.6984375 225.82140625 -18.671875 226.6953125 C-19 229 -19 229 -20.296875 230.77734375 C-23.16395717 232.83559311 -25.60883607 232.42389549 -29 232 C-32.26794118 228.82476637 -32.56645691 225.6614123 -33.0625 221.25 C-33.74894628 215.56974191 -33.74894628 215.56974191 -35 210 C-36.21650487 205.5082897 -36.74527495 200.94861446 -37.375 196.34375 C-38.11862347 191.04794505 -38.99587717 185.77473699 -39.875 180.5 C-40.04612305 179.47326172 -40.21724609 178.44652344 -40.39355469 177.38867188 C-41.56788186 170.41216994 -42.82956741 163.45487658 -44.125 156.5 C-45.27908694 150.30074818 -46.28431296 144.14040057 -47 137.875 C-47.78300048 131.07051791 -49.05890385 124.44592011 -50.4621582 117.74438477 C-51.93842535 110.59356478 -53.0555259 103.41535665 -54.04858398 96.18261719 C-54.26159374 92.26810937 -54.26159374 92.26810937 -56 89 C-57.75413593 92.78976633 -59.50253406 96.58215407 -61.25 100.375 C-61.74113281 101.43589844 -62.23226563 102.49679687 -62.73828125 103.58984375 C-65.37417058 109.3185099 -67.87087617 115.03818123 -70.03417969 120.96337891 C-71.08808645 123.18574751 -72.07906662 124.47076533 -74 126 C-77 126.4375 -77 126.4375 -80 126 C-82.52161412 123.8146011 -82.96007297 122.52100455 -83.21459961 119.19970703 C-82.98127769 115.72084794 -82.19095665 113.56222631 -80.69140625 110.4296875 C-80.19576172 109.3773291 -79.70011719 108.3249707 -79.18945312 107.24072266 C-78.65255859 106.13003418 -78.11566406 105.0193457 -77.5625 103.875 C-76.45846708 101.54742882 -75.35561564 99.21929688 -74.25390625 96.890625 C-73.42850342 95.15522461 -73.42850342 95.15522461 -72.58642578 93.38476562 C-71.12599397 90.26881816 -69.71809248 87.13737671 -68.33984375 83.984375 C-67.94144287 83.07445801 -67.54304199 82.16454102 -67.13256836 81.22705078 C-66.39633209 79.53556422 -65.66632025 77.84134999 -64.94360352 76.14404297 C-63.16496651 72.09128841 -61.64145994 68.72218728 -58 66 C-51.31965847 65.15170266 -51.31965847 65.15170266 -47.46826172 67.62744141 C-44.40125219 70.57553227 -44.08083523 72.32594471 -43.41015625 76.4921875 C-43.24520409 77.46174881 -43.24520409 77.46174881 -43.07691956 78.45089722 C-42.71841423 80.58946934 -42.39026722 82.73151962 -42.0625 84.875 C-41.81795832 86.37560598 -41.57166936 87.87592815 -41.32373047 89.37597656 C-40.80064539 92.56679553 -40.29137371 95.75941213 -39.79248047 98.95410156 C-39.11963089 103.25970855 -38.42206465 107.56088546 -37.71647644 111.86123657 C-37.01232975 116.15636446 -36.31794026 120.45305199 -35.625 124.75 C-35.49167267 125.57336853 -35.35834534 126.39673706 -35.22097778 127.24505615 C-34.84257914 129.59486321 -34.47096245 131.9456385 -34.1015625 134.296875 C-33.98937881 134.98925262 -33.87719513 135.68163025 -33.76161194 136.39498901 C-33.15636089 140.30110193 -32.8919919 144.0488952 -33 148 C-32.34 148 -31.68 148 -31 148 C-31.02650635 146.87803223 -31.0530127 145.75606445 -31.08032227 144.60009766 C-31.07616697 139.78430642 -30.43910324 135.15184663 -29.71484375 130.3984375 C-29.51029068 129.00412003 -29.51029068 129.00412003 -29.30160522 127.58163452 C-29.00608168 125.56772625 -28.70825126 123.55415542 -28.40835571 121.54089355 C-27.59367457 116.06322025 -26.79963865 110.58258024 -26.0078125 105.1015625 C-25.84213272 103.95510254 -25.67645294 102.80864258 -25.50575256 101.62744141 C-23.64819598 88.68468383 -21.97552777 75.71892789 -20.3125 62.75 C-20.01670231 60.45497326 -19.72072455 58.15996973 -19.42456055 55.86499023 C-17.87837897 43.87999516 -17.87837897 43.87999516 -16.35498047 31.89208984 C-15.83151346 27.73900828 -15.29197285 23.5882057 -14.75 19.4375 C-14.61118408 18.30344727 -14.47236816 17.16939453 -14.3293457 16.00097656 C-13.14174323 7.06087024 -13.14174323 7.06087024 -10 3 C-9.5875 2.401875 -9.175 1.80375 -8.75 1.1875 C-5.77759896 -0.82948642 -3.47356049 -0.47911179 0 0 Z " fill="#F4F4D7" transform="translate(519,395)"/>
<path d="M0 0 C1.24449417 0.00135956 1.24449417 0.00135956 2.51412964 0.00274658 C3.82407143 -0.00732925 3.82407143 -0.00732925 5.16047668 -0.01760864 C8.05714554 -0.03665983 10.95358361 -0.04051633 13.85031128 -0.04266357 C15.85808916 -0.04908628 17.86586609 -0.05581424 19.87364197 -0.06283569 C24.08618338 -0.0748261 28.29864267 -0.07851468 32.51119995 -0.07733154 C37.91653947 -0.07712819 43.32135415 -0.10443913 48.72656918 -0.13887596 C52.87434826 -0.16108222 57.02199977 -0.16517103 61.16983223 -0.16411209 C63.16299818 -0.16647719 65.15616717 -0.17535149 67.14927483 -0.19077682 C69.93403052 -0.21031129 72.71763782 -0.20464861 75.50241089 -0.19256592 C76.33004944 -0.20380493 77.15768799 -0.21504395 78.01040649 -0.22662354 C83.58187342 -0.16500397 83.58187342 -0.16500397 86.08128357 2.16738892 C87.33129524 4.8470542 87.58454664 6.3699647 87.07296753 9.29327393 C85.57492065 11.41618347 85.57492065 11.41618347 83.07296753 13.29327393 C80.12586098 13.69295771 77.55125039 13.85069525 74.60421753 13.82672119 C73.75174438 13.83533676 72.89927124 13.84395233 72.02096558 13.85282898 C69.2046569 13.87552175 66.38934054 13.86874455 63.57296753 13.85968018 C61.61528222 13.86491406 59.65759944 13.87118967 57.69992065 13.87846375 C53.59758637 13.88887388 49.49559884 13.88429729 45.39328003 13.86968994 C40.13363886 13.85249559 34.87508941 13.87600226 29.61557007 13.91117954 C25.57321927 13.9331286 21.53113076 13.93171821 17.48873901 13.92341423 C15.54943646 13.92259345 13.6101149 13.92948098 11.67086792 13.94418526 C8.96046607 13.96158665 6.2520395 13.94712675 3.54171753 13.92437744 C2.33841797 13.94191574 2.33841797 13.94191574 1.11080933 13.95980835 C-2.7853367 13.89319918 -4.55444553 13.63694747 -7.46414185 10.95304871 C-8.92703247 8.29327393 -8.92703247 8.29327393 -8.80203247 5.10577393 C-7.1973674 -0.05207807 -5.03689844 0.05685495 0 0 Z " fill="#F4F4D6" transform="translate(282.9270324707031,500.70672607421875)"/>
<path d="M0 0 C29.7 0 59.4 0 90 0 C90 0.33 90 0.66 90 1 C73.83 1 57.66 1 41 1 C41 1.66 41 2.32 41 3 C40.34 3 39.68 3 39 3 C39 2.34 39 1.68 39 1 C37.02 1 35.04 1 33 1 C33 1.66 33 2.32 33 3 C32.34 3 31.68 3 31 3 C31 2.34 31 1.68 31 1 C30.2265625 1.08378906 29.453125 1.16757812 28.65625 1.25390625 C22.53598436 1.85229856 17.0628867 2.04934578 11 1 C11 1.66 11 2.32 11 3 C10.34 3 9.68 3 9 3 C9 2.34 9 1.68 9 1 C6.36 1 3.72 1 1 1 C0.67 1.99 0.34 2.98 0 4 C-0.66 4 -1.32 4 -2 4 C-1.34 2.68 -0.68 1.36 0 0 Z " fill="#EDEEE4" transform="translate(277,501)"/>
<path d="M0 0 C2.04436837 3.06655255 2.54390211 4.87109668 3.1875 8.4375 C3.36667969 9.38496094 3.54585937 10.33242188 3.73046875 11.30859375 C3.98919608 13.89211739 3.81315079 15.56054763 3 18 C2.34 16.35 1.68 14.7 1 13 C0.01 13.99 -0.98 14.98 -2 16 C-2.08997924 10.87118304 -1.93119789 6.0698552 -1 1 C-0.67 0.67 -0.34 0.34 0 0 Z " fill="#363C39" transform="translate(516,428)"/>
<path d="M0 0 C0.33 0.99 0.66 1.98 1 3 C0.3503125 3.5878125 0.3503125 3.5878125 -0.3125 4.1875 C-2.09187285 5.95316987 -2.09187285 5.95316987 -3.25 8.25 C-5.34178468 11.53709021 -7.90404131 14.12242186 -10.6875 16.8125 C-11.45416992 17.56563477 -11.45416992 17.56563477 -12.23632812 18.33398438 C-13.48634362 19.56063509 -14.7425468 20.78097491 -16 22 C-16.66 21.67 -17.32 21.34 -18 21 C-17.53851562 20.57332031 -17.07703125 20.14664063 -16.6015625 19.70703125 C-10.31416838 13.68057641 -5.18228141 6.9663455 0 0 Z " fill="#32373D" transform="translate(645,756)"/>
<path d="M0 0 C0.99 0.495 0.99 0.495 2 1 C2.8171176 3.83903634 3.50532773 6.61737642 4.125 9.5 C4.30675781 10.27859375 4.48851562 11.0571875 4.67578125 11.859375 C5.88386487 17.34570964 6.16845276 22.38490809 6 28 C5.67 28 5.34 28 5 28 C4.1636693 23.70891175 3.33144191 19.41703795 2.5 15.125 C2.26152344 13.90167969 2.02304687 12.67835938 1.77734375 11.41796875 C1.55175781 10.25136719 1.32617188 9.08476562 1.09375 7.8828125 C0.88427734 6.80402832 0.67480469 5.72524414 0.45898438 4.61376953 C0 2 0 2 0 0 Z " fill="#323932" transform="translate(538,473)"/>
<path d="M0 0 C0.66 0.66 1.32 1.32 2 2 C1.9765625 5.0390625 1.9765625 5.0390625 1.625 8.625 C1.51414062 9.81351563 1.40328125 11.00203125 1.2890625 12.2265625 C1.19367188 13.14179687 1.09828125 14.05703125 1 15 C0.34 15 -0.32 15 -1 15 C-1.33 10.71 -1.66 6.42 -2 2 C-1.34 2 -0.68 2 0 2 C0 1.34 0 0.68 0 0 Z " fill="#3B413B" transform="translate(487,528)"/>
<path d="M0 0 C0.66 0 1.32 0 2 0 C4.42857143 7.42857143 4.42857143 7.42857143 3 11 C2.34 10.34 1.68 9.68 1 9 C-0.98 9.99 -0.98 9.99 -3 11 C-2.01 7.37 -1.02 3.74 0 0 Z " fill="#363B37" transform="translate(598,460)"/>
<path d="M0 0 C1 2 1 2 0.22265625 4.3828125 C-0.16019531 5.28773438 -0.54304687 6.19265625 -0.9375 7.125 C-1.31777344 8.03507813 -1.69804688 8.94515625 -2.08984375 9.8828125 C-2.39019531 10.58148437 -2.69054687 11.28015625 -3 12 C-3.66 12 -4.32 12 -5 12 C-5.33 9.36 -5.66 6.72 -6 4 C-5.01 4 -4.02 4 -3 4 C-2.67 3.01 -2.34 2.02 -2 1 C-1.34 0.67 -0.68 0.34 0 0 Z " fill="#38403C" transform="translate(558,538)"/>
<path d="M0 0 C0.66 0.33 1.32 0.66 2 1 C-0.31 7.6 -2.62 14.2 -5 21 C-5.98612849 17.05548603 -5.91655666 15.56813566 -5.0625 11.75 C-4.86785156 10.85796875 -4.67320312 9.9659375 -4.47265625 9.046875 C-4.31667969 8.37140625 -4.16070313 7.6959375 -4 7 C-3.34 7 -2.68 7 -2 7 C-1.34 4.69 -0.68 2.38 0 0 Z " fill="#2F3633" transform="translate(568,506)"/>
<path d="M0 0 C0.66 0 1.32 0 2 0 C3.6875 2.375 3.6875 2.375 5 5 C4.67 5.66 4.34 6.32 4 7 C3.46375 6.505 2.9275 6.01 2.375 5.5 C-0.63751037 3.59736187 -2.492309 3.70147311 -6 4 C-6.99 4.33 -7.98 4.66 -9 5 C-9 4.34 -9 3.68 -9 3 C-6.04335481 1.5216774 -3.25770263 1.93967217 0 2 C0 1.34 0 0.68 0 0 Z " fill="#2B3239" transform="translate(648,592)"/>
<path d="M0 0 C2 3 2 3 1.8125 6.5625 C1 10 1 10 -2 12 C-1.85962479 10.18706911 -1.71255111 8.3746557 -1.5625 6.5625 C-1.48128906 5.55316406 -1.40007813 4.54382813 -1.31640625 3.50390625 C-1 1 -1 1 0 0 Z " fill="#4F5549" transform="translate(516,428)"/>
<path d="M0 0 C0.33 0 0.66 0 1 0 C1.33 3.3 1.66 6.6 2 10 C0.68 9.67 -0.64 9.34 -2 9 C-2 7.02 -2 5.04 -2 3 C-1.34 3 -0.68 3 0 3 C0 2.01 0 1.02 0 0 Z " fill="#3C404F" transform="translate(386,699)"/>
<path d="M0 0 C3.3 0 6.6 0 10 0 C10.33 0.99 10.66 1.98 11 3 C10.34 3 9.68 3 9 3 C9 2.34 9 1.68 9 1 C6.36 1 3.72 1 1 1 C0.67 1.99 0.34 2.98 0 4 C-0.66 4 -1.32 4 -2 4 C-1.34 2.68 -0.68 1.36 0 0 Z " fill="#E1E3D7" transform="translate(277,501)"/>
<path d="M0 0 C0.33 1.32 0.66 2.64 1 4 C0.484375 3.690625 -0.03125 3.38125 -0.5625 3.0625 C-3.66665423 1.70940713 -6.65115007 1.38640576 -10 1 C-10 0.67 -10 0.34 -10 0 C-6.33694766 -0.74926071 -3.57644848 -1.2380014 0 0 Z " fill="#4E534B" transform="translate(472,460)"/>
<path d="M0 0 C0.66 0.33 1.32 0.66 2 1 C0.375 6.75 0.375 6.75 -3 9 C-2.01 6.03 -1.02 3.06 0 0 Z " fill="#DDE0C9" transform="translate(558,540)"/>
</svg>
